# xmcd CD database file
#
# Track frame offsets:
#	150
#	56698
#	95510
#	142991
#	175446
#	221533
#
# Disc length: 3538 seconds
#
# Revision: 0
# Processed by: cddbd v1.5.2PL0 Copyright (c) Steve Scherf et al.
# Submitted via: CDex 1.51
#
DISCID=540dd006
DTITLE=Joachim Kuhn - Live In Europe Vol.1
DYEAR=1993
DGENRE=Jazz
TTITLE0=From Time To Time Free
TTITLE1=Lili Marleen
TTITLE2=Summertime
TTITLE3=Easy To Read
TTITLE4=Last Tango In Paris
TTITLE5=Heavy Birthday
EXTD=YEAR: 1993
EXTT0=
EXTT1=
EXTT2=
EXTT3=
EXTT4=
EXTT5=
PLAYORDER=
